<svg width="40" height="29" viewBox="0 0 40 29" fill="none" xmlns="http://www.w3.org/2000/svg">
<path d="M425.982 299.965C424.195 299.965 422.588 299.667 421.159 299.072C419.73 298.476 418.182 297.226 416.515 295.321C414.848 293.296 412.883 290.379 410.62 286.568C406.81 280.257 403.654 273.648 401.153 266.741C398.653 259.716 396.45 252.69 394.544 245.664C392.639 238.519 390.912 231.732 389.364 225.301C387.935 218.871 386.387 213.036 384.72 207.796C383.053 202.438 381.148 198.091 379.004 194.757C376.384 190.589 374.42 187.374 373.11 185.111C371.919 182.73 371.323 180.408 371.323 178.145C371.323 176.24 371.859 174.692 372.931 173.501C374.003 172.31 375.61 171.715 377.754 171.715C380.374 171.715 382.755 172.667 384.899 174.573C387.042 176.478 389.424 179.753 392.044 184.397C394.901 189.398 397.343 194.995 399.367 201.187C401.391 207.26 403.178 213.691 404.726 220.478C406.393 227.266 408.119 234.113 409.906 241.02C411.811 247.927 413.954 254.655 416.336 261.204C418.837 267.753 421.933 273.886 425.624 279.602L420.266 282.639C425.267 263.467 431.102 245.724 437.771 229.409C444.558 212.976 452.596 197.496 461.884 182.968C464.147 179.395 465.993 176.835 467.422 175.287C468.851 173.62 470.101 172.548 471.173 172.072C472.244 171.596 473.376 171.358 474.567 171.358C476.591 171.358 478.079 172.012 479.032 173.322C480.104 174.632 480.64 176.18 480.64 177.967C480.64 179.634 480.402 181.301 479.925 182.968C479.568 184.516 478.973 186.124 478.139 187.791C477.424 189.339 476.531 191.065 475.46 192.971C470.22 201.783 465.576 209.999 461.527 217.62C457.598 225.123 454.025 232.506 450.81 239.769C447.714 246.914 444.796 254.476 442.057 262.454C439.438 270.314 436.877 279.007 434.377 288.533C433.186 293.177 431.876 296.273 430.447 297.821C429.137 299.25 427.649 299.965 425.982 299.965ZM505.091 299.786C499.733 299.786 495.029 298.536 490.98 296.035C487.05 293.534 484.014 290.022 481.87 285.497C479.727 280.971 478.655 275.672 478.655 269.599C478.655 263.883 479.548 258.108 481.335 252.273C483.121 246.438 485.622 240.901 488.837 235.661C492.052 230.422 495.862 225.777 500.268 221.729C504.794 217.68 509.735 214.524 515.094 212.262C520.453 209.88 526.169 208.689 532.242 208.689C534.981 208.689 537.243 209.404 539.029 210.833C540.815 212.262 541.709 214.405 541.709 217.263C541.709 218.692 541.232 219.943 540.28 221.014C539.446 221.967 538.136 222.562 536.35 222.8C528.014 223.872 520.691 226.79 514.38 231.553C508.187 236.316 503.365 242.092 499.911 248.879C496.458 255.667 494.731 262.752 494.731 270.135C494.731 273.588 495.029 276.744 495.624 279.602C496.22 282.341 497.53 285.913 499.554 290.319L490.266 277.994C493.005 280.733 495.267 282.519 497.053 283.353C498.959 284.187 501.519 284.603 504.734 284.603C512.355 284.603 519.143 280.078 525.097 271.028C531.17 261.978 535.576 248.82 538.315 231.553C538.791 229.29 539.625 227.564 540.815 226.373C542.006 225.063 543.614 224.408 545.638 224.408C548.496 224.408 550.937 225.539 552.962 227.802C554.986 229.945 556.236 232.803 556.713 236.376C557.785 243.282 558.916 249.475 560.107 254.952C561.416 260.311 563.262 265.431 565.644 270.314C568.025 275.077 571.241 280.138 575.289 285.497C576.361 286.687 576.957 288.057 577.076 289.605C577.195 291.153 576.957 292.701 576.361 294.249C575.885 295.678 575.051 296.869 573.86 297.821C572.789 298.774 571.479 299.25 569.931 299.25C568.264 299.25 566.894 298.893 565.822 298.179C564.751 297.464 563.739 296.571 562.786 295.499C560.523 292.284 558.38 289.128 556.356 286.032C554.331 282.817 552.485 279.185 550.818 275.136C549.151 270.969 547.722 266.086 546.531 260.49C545.341 254.774 544.507 248.046 544.031 240.305L549.925 240.127C548.258 251.082 545.876 260.43 542.78 268.17C539.684 275.791 536.052 281.924 531.884 286.568C527.717 291.093 523.311 294.428 518.666 296.571C514.141 298.714 509.616 299.786 505.091 299.786ZM617.108 299.965C614.369 299.965 611.69 299.548 609.07 298.714C606.569 298 604.247 296.511 602.104 294.249C600.079 291.986 598.293 288.712 596.745 284.425C595.197 280.138 593.946 274.482 592.994 267.456C592.16 260.43 591.743 251.737 591.743 241.377C591.743 231.374 591.922 222.562 592.279 214.941C592.756 207.201 593.351 200.116 594.066 193.685C594.899 187.136 595.852 180.705 596.923 174.394C597.757 169.869 598.769 166.713 599.96 164.927C601.151 163.141 602.758 162.248 604.783 162.248C607.164 162.248 609.07 163.26 610.499 165.284C611.928 167.309 612.642 170.703 612.642 175.466C612.642 178.8 612.404 182.432 611.928 186.362C611.451 190.291 610.856 194.876 610.141 200.116C609.546 205.355 609.01 211.607 608.534 218.871C608.058 226.016 607.819 234.709 607.819 244.949C607.819 252.69 608.058 259.18 608.534 264.419C609.129 269.54 609.844 273.588 610.677 276.565C611.63 279.542 612.761 281.686 614.071 282.996C615.381 284.187 616.691 284.782 618.001 284.782C619.668 284.782 620.978 284.603 621.93 284.246C622.883 283.889 623.657 283.591 624.253 283.353C624.967 282.996 625.741 282.817 626.575 282.817C628.718 282.817 630.147 283.413 630.862 284.603C631.576 285.794 631.933 287.223 631.933 288.89C631.933 292.225 630.445 294.904 627.468 296.928C624.491 298.953 621.037 299.965 617.108 299.965ZM682.303 299.608C673.848 299.608 666.584 297.94 660.511 294.606C654.438 291.153 649.734 286.39 646.4 280.316C643.185 274.124 641.577 266.92 641.577 258.703C641.577 251.678 642.947 245.128 645.686 239.055C648.544 232.982 652.414 227.683 657.296 223.158C662.178 218.514 667.835 214.941 674.265 212.44C680.695 209.821 687.483 208.511 694.628 208.511C697.01 208.511 699.213 208.868 701.237 209.582C703.38 210.178 705.047 211.25 706.238 212.798C707.548 214.346 708.203 216.549 708.203 219.407C708.203 221.55 707.667 223.336 706.596 224.765C705.643 226.194 704.154 226.909 702.13 226.909C700.82 226.909 699.748 226.73 698.915 226.373C698.2 225.897 697.367 225.48 696.414 225.123C695.581 224.646 694.152 224.408 692.127 224.408C685.578 224.408 679.683 225.956 674.444 229.052C669.323 232.148 665.215 236.376 662.119 241.734C659.142 247.093 657.653 253.226 657.653 260.132C657.653 265.015 658.606 269.242 660.511 272.814C662.536 276.387 665.394 279.185 669.085 281.21C672.896 283.234 677.302 284.246 682.303 284.246C687.543 284.246 691.532 283.71 694.271 282.639C697.129 281.448 699.272 280.138 700.701 278.709C702.13 277.161 703.38 275.851 704.452 274.779C705.524 273.588 706.893 272.993 708.56 272.993C710.227 272.993 711.537 273.529 712.49 274.601C713.443 275.672 713.919 277.161 713.919 279.066C713.919 283.115 712.49 286.687 709.632 289.783C706.893 292.76 703.142 295.142 698.379 296.928C693.616 298.714 688.257 299.608 682.303 299.608ZM774.555 300.143C765.505 300.143 757.408 298.238 750.263 294.428C743.237 290.498 737.7 285.139 733.651 278.352C729.721 271.445 727.757 263.586 727.757 254.774C727.757 248.105 728.947 242.092 731.329 236.733C733.83 231.255 736.926 226.552 740.617 222.622C744.309 218.692 748 215.715 751.692 213.691C755.502 211.547 758.718 210.476 761.337 210.476C762.647 210.476 763.719 210.654 764.553 211.011C765.505 211.369 766.279 211.964 766.875 212.798C767.47 213.512 767.768 214.524 767.768 215.834C767.768 218.216 767.232 220.359 766.16 222.265C765.207 224.17 763.183 225.956 760.087 227.623C756.276 229.886 753.18 232.386 750.799 235.125C748.417 237.745 746.631 240.663 745.44 243.878C744.249 246.974 743.654 250.368 743.654 254.059C743.654 263.705 746.393 271.445 751.87 277.28C757.348 282.996 764.731 285.854 774.019 285.854C781.879 285.854 788.19 282.877 792.953 276.923C797.717 270.85 800.098 262.812 800.098 252.809C800.098 243.64 798.014 236.495 793.846 231.374C789.798 226.135 784.201 223.515 777.056 223.515C773.245 223.515 770.209 224.229 767.946 225.658C765.684 227.087 763.362 228.993 760.98 231.374C759.075 233.16 757.646 234.768 756.693 236.197C755.86 237.626 754.967 238.757 754.014 239.591C753.061 240.305 751.811 240.663 750.263 240.663C748.596 240.663 747.226 240.186 746.155 239.234C745.202 238.162 744.726 236.376 744.726 233.875C744.726 231.136 745.559 228.338 747.226 225.48C749.013 222.503 751.335 219.823 754.193 217.442C757.17 214.941 760.444 212.917 764.017 211.369C767.589 209.821 771.34 209.047 775.27 209.047C783.725 209.047 790.988 210.892 797.062 214.584C803.135 218.156 807.779 223.277 810.994 229.945C814.328 236.495 815.995 244.295 815.995 253.345C815.995 262.157 814.15 270.135 810.458 277.28C806.886 284.306 802.003 289.903 795.811 294.07C789.619 298.119 782.534 300.143 774.555 300.143ZM920.747 299.608C917.175 299.608 914.019 298 911.28 294.785C908.541 291.451 906.398 286.092 904.85 278.709C903.421 271.207 902.706 261.442 902.706 249.415C902.706 243.699 902.587 239.115 902.349 235.661C902.111 232.208 901.694 229.469 901.099 227.445C900.622 225.42 899.908 223.813 898.955 222.622C898.003 221.431 896.812 220.181 895.383 218.871C897.764 218.752 899.789 219.049 901.456 219.764C903.242 220.359 904.552 221.55 905.386 223.336C906.219 225.003 906.696 227.266 906.815 230.124C905.147 227.623 903.718 225.956 902.528 225.123C901.456 224.289 900.087 223.872 898.419 223.872C896.038 223.872 893.299 225.42 890.203 228.516C887.107 231.493 883.892 235.721 880.557 241.198C877.223 246.676 874.008 253.226 870.912 260.847C867.816 268.349 865.077 276.625 862.695 285.675C861.504 290.915 860.135 294.547 858.587 296.571C857.039 298.595 854.955 299.608 852.335 299.608C847.929 299.608 844.595 296.928 842.332 291.57C840.07 286.211 838.939 279.364 838.939 271.028C838.939 264.955 839.177 259.656 839.653 255.131C840.248 250.606 840.844 246.378 841.439 242.449C842.154 238.519 842.749 234.47 843.225 230.303C843.821 226.135 844.119 221.371 844.119 216.013C844.119 213.75 844.654 212.024 845.726 210.833C846.798 209.523 848.405 208.868 850.549 208.868C853.288 208.868 855.372 209.88 856.801 211.905C858.349 213.81 859.123 217.025 859.123 221.55C859.123 225.48 858.765 229.29 858.051 232.982C857.456 236.673 856.801 240.663 856.086 244.949C855.372 249.236 854.776 254.238 854.3 259.954C853.824 265.55 853.764 272.159 854.121 279.781L850.906 278.888C854.955 263.526 859.599 250.606 864.839 240.127C870.197 229.648 875.794 221.729 881.629 216.37C887.583 211.011 893.418 208.332 899.134 208.332C905.445 208.332 910.149 210.833 913.245 215.834C916.46 220.836 918.068 227.504 918.068 235.84C918.068 245.128 918.127 253.107 918.246 259.775C918.365 266.444 918.961 271.921 920.033 276.208C921.104 280.495 922.95 283.77 925.57 286.032C926.761 286.985 927.594 288.057 928.071 289.248C928.547 290.319 928.785 291.629 928.785 293.177C928.785 294.725 928.13 296.214 926.82 297.643C925.629 298.953 923.605 299.608 920.747 299.608ZM957.572 300.322C954.238 300.322 951.737 298.417 950.07 294.606C948.403 290.796 947.57 285.377 947.57 278.352C947.57 272.159 948.284 265.134 949.713 257.274C951.261 249.415 953.583 240.424 956.679 230.303C956.441 226.373 956.024 222.741 955.429 219.407C954.953 215.953 954.178 212.321 953.107 208.511C952.154 204.7 950.785 200.354 948.998 195.471C947.45 191.542 947.034 188.565 947.748 186.54C948.582 184.516 950.606 183.504 953.821 183.504C957.632 183.504 960.907 185.766 963.645 190.291C966.503 194.816 968.468 202.497 969.54 213.334L965.074 214.405C969.599 204.402 974.72 196.245 980.436 189.934C986.271 183.504 992.582 178.8 999.37 175.823C1006.16 172.727 1013.24 171.179 1020.63 171.179C1025.75 171.179 1030.21 171.953 1034.02 173.501C1037.83 175.049 1040.93 177.193 1043.31 179.931C1045.69 182.551 1047.42 185.647 1048.49 189.22C1049.68 192.792 1050.28 196.662 1050.28 200.83C1050.28 205.474 1049.32 210.178 1047.42 214.941C1045.51 219.704 1042.24 224.527 1037.59 229.409C1033.07 234.173 1026.88 238.876 1019.02 243.521C1011.16 248.046 1001.27 252.392 989.367 256.56C995.083 261.323 1002.58 266.205 1011.87 271.207C1021.28 276.208 1031.7 280.555 1043.13 284.246C1047.54 285.556 1050.46 286.866 1051.88 288.176C1053.31 289.486 1054.03 290.915 1054.03 292.463C1054.03 294.963 1053.19 296.869 1051.53 298.179C1049.86 299.489 1047.24 300.143 1043.67 300.143C1040.93 300.143 1037.12 299.369 1032.24 297.821C1027.35 296.273 1022 294.189 1016.16 291.57C1010.44 288.95 1004.67 285.973 998.834 282.639C993.118 279.185 987.819 275.613 982.937 271.921C978.173 268.23 974.363 264.538 971.505 260.847C970.195 258.941 969.48 257.036 969.361 255.131C969.242 253.226 969.778 251.499 970.969 249.951C972.16 248.403 974.005 247.212 976.506 246.378C987.462 242.687 996.631 238.876 1004.01 234.947C1011.4 231.017 1017.29 227.087 1021.7 223.158C1026.1 219.228 1029.26 215.417 1031.16 211.726C1033.07 208.034 1034.02 204.522 1034.02 201.187C1034.02 197.139 1032.83 193.685 1030.45 190.827C1028.19 187.969 1024.32 186.54 1018.84 186.54C1013.84 186.54 1009.02 187.731 1004.37 190.113C999.727 192.494 995.321 195.888 991.153 200.294C987.104 204.7 983.413 209.94 980.079 216.013C976.744 222.086 973.827 228.874 971.326 236.376C968.945 243.759 967.039 251.618 965.61 259.954C964.3 268.289 963.645 276.982 963.645 286.032C963.645 289.962 963.467 292.999 963.11 295.142C962.752 297.166 962.157 298.536 961.323 299.25C960.49 299.965 959.239 300.322 957.572 300.322ZM1103.7 299.786C1096.91 299.786 1091.07 298.834 1086.19 296.928C1081.43 295.023 1077.44 292.284 1074.22 288.712C1071.13 285.139 1068.8 280.971 1067.26 276.208C1065.83 271.445 1065.11 266.205 1065.11 260.49C1065.11 254.416 1066.19 248.343 1068.33 242.27C1070.59 236.078 1073.81 230.481 1077.97 225.48C1082.14 220.359 1087.14 216.251 1092.98 213.155C1098.81 210.059 1105.36 208.511 1112.63 208.511C1118.22 208.511 1123.11 209.523 1127.27 211.547C1131.44 213.572 1134.66 216.608 1136.92 220.657C1139.3 224.587 1140.49 229.588 1140.49 235.661C1140.49 240.544 1139.36 244.83 1137.1 248.522C1134.84 252.213 1131.68 255.369 1127.63 257.989C1123.7 260.49 1119.06 262.454 1113.7 263.883C1108.34 265.193 1102.56 265.848 1096.37 265.848C1089.23 265.848 1084.23 264.896 1081.37 262.99C1078.51 260.966 1077.08 258.763 1077.08 256.381C1077.08 254.952 1077.44 253.94 1078.15 253.345C1078.87 252.63 1080.06 252.273 1081.73 252.273C1083.04 252.273 1084.64 252.511 1086.55 252.987C1088.57 253.345 1091.43 253.523 1095.12 253.523C1101.08 253.523 1106.26 252.809 1110.66 251.38C1115.19 249.832 1118.76 247.688 1121.38 244.949C1124 242.211 1125.31 239.055 1125.31 235.483C1125.31 231.434 1124.3 228.397 1122.27 226.373C1120.25 224.349 1116.91 223.336 1112.27 223.336C1107.63 223.336 1103.34 224.408 1099.41 226.552C1095.6 228.695 1092.26 231.612 1089.41 235.304C1086.67 238.995 1084.52 243.223 1082.98 247.986C1081.43 252.63 1080.65 257.513 1080.65 262.633C1080.65 266.92 1081.37 270.79 1082.8 274.243C1084.23 277.578 1086.55 280.316 1089.76 282.46C1092.98 284.484 1097.32 285.497 1102.8 285.497C1109.23 285.497 1114.59 284.722 1118.88 283.174C1123.28 281.626 1126.92 279.9 1129.77 277.994C1132.63 275.97 1135.01 274.243 1136.92 272.814C1138.94 271.266 1140.79 270.492 1142.46 270.492C1144.12 270.492 1145.25 270.969 1145.85 271.921C1146.45 272.874 1146.74 274.422 1146.74 276.565C1146.74 278.947 1145.55 281.507 1143.17 284.246C1140.91 286.866 1137.75 289.367 1133.7 291.748C1129.66 294.13 1125.07 296.095 1119.95 297.643C1114.83 299.072 1109.41 299.786 1103.7 299.786ZM1185.81 299.786C1180.57 299.786 1176.17 299.131 1172.6 297.821C1169.02 296.511 1166.34 294.844 1164.56 292.82C1162.89 290.796 1162.06 288.712 1162.06 286.568C1162.06 284.782 1162.59 283.294 1163.66 282.103C1164.74 280.912 1166.28 280.316 1168.31 280.316C1169.5 280.316 1170.45 280.555 1171.17 281.031C1172 281.507 1172.89 282.043 1173.85 282.639C1174.92 283.234 1176.35 283.77 1178.13 284.246C1179.92 284.603 1182.36 284.782 1185.46 284.782C1193.08 284.782 1199.75 283.889 1205.46 282.103C1211.3 280.197 1215.29 276.982 1217.43 272.457C1216.6 269.837 1214.75 267.753 1211.89 266.205C1209.15 264.657 1205.82 263.347 1201.89 262.276C1197.96 261.085 1193.85 259.894 1189.57 258.703C1185.4 257.393 1181.53 255.905 1177.95 254.238C1174.38 252.571 1171.41 250.308 1169.02 247.45C1166.76 244.592 1165.63 240.96 1165.63 236.554C1165.63 232.386 1166.94 228.576 1169.56 225.123C1172.18 221.55 1175.63 218.514 1179.92 216.013C1184.33 213.393 1189.15 211.428 1194.39 210.118C1199.63 208.808 1204.93 208.154 1210.29 208.154C1215.05 208.273 1218.68 209.404 1221.18 211.547C1223.68 213.691 1224.93 215.894 1224.93 218.156C1224.93 219.943 1224.4 221.371 1223.32 222.443C1222.37 223.515 1220.88 224.051 1218.86 224.051C1218.14 224.051 1217.43 223.991 1216.72 223.872C1216 223.753 1215.11 223.694 1214.04 223.694C1213.08 223.574 1211.89 223.515 1210.46 223.515C1203.32 223.515 1197.07 224.646 1191.71 226.909C1186.47 229.052 1182.54 232.327 1179.92 236.733C1180.51 239.115 1182.18 241.079 1184.92 242.627C1187.78 244.175 1191.17 245.485 1195.1 246.557C1199.15 247.629 1203.32 248.82 1207.61 250.13C1211.89 251.32 1215.88 252.809 1219.57 254.595C1223.38 256.262 1226.48 258.525 1228.86 261.383C1231.24 264.241 1232.43 267.873 1232.43 272.279C1232.43 278.59 1230.23 283.829 1225.83 287.997C1221.54 292.046 1215.88 295.023 1208.86 296.928C1201.83 298.834 1194.15 299.786 1185.81 299.786ZM1288.97 300.322C1279.81 300.322 1272.48 298.119 1267 293.713C1261.53 289.307 1257.54 283.115 1255.04 275.136C1252.66 267.158 1251.46 257.87 1251.46 247.272C1251.46 240.841 1251.76 235.066 1252.36 229.945C1253.07 224.825 1253.85 219.943 1254.68 215.298C1255.51 210.654 1256.17 206.01 1256.64 201.366C1257.24 195.769 1257.6 191.244 1257.72 187.791C1257.95 184.218 1258.19 180.944 1258.43 177.967C1258.67 176.299 1259.26 174.811 1260.22 173.501C1261.17 172.191 1262.78 171.536 1265.04 171.536C1268.85 171.536 1271.35 173.799 1272.54 178.324C1273.73 182.73 1273.85 189.458 1272.9 198.508C1272.3 203.271 1271.65 207.499 1270.93 211.19C1270.34 214.882 1269.74 218.514 1269.15 222.086C1268.67 225.539 1268.2 229.231 1267.72 233.16C1267.36 236.971 1267.18 241.437 1267.18 246.557C1267.18 256.084 1268.02 263.645 1269.68 269.242C1271.35 274.839 1273.85 278.828 1277.19 281.21C1280.52 283.591 1284.63 284.782 1289.51 284.782C1292.49 284.782 1294.75 284.484 1296.3 283.889C1297.85 283.294 1299.16 282.758 1300.23 282.281C1301.3 281.686 1302.61 281.388 1304.16 281.388C1305.82 281.388 1307.13 281.924 1308.09 282.996C1309.04 284.068 1309.52 285.497 1309.52 287.283C1309.52 290.617 1307.79 293.654 1304.34 296.392C1300.88 299.012 1295.76 300.322 1288.97 300.322ZM1267.36 231.017C1264.27 232.446 1261.82 232.565 1260.04 231.374C1258.37 230.183 1257.54 228.457 1257.54 226.194C1257.54 223.694 1258.13 221.491 1259.32 219.585C1260.63 217.68 1263.73 215.834 1268.61 214.048C1272.9 212.381 1277.72 211.071 1283.08 210.118C1288.44 209.047 1293.44 208.511 1298.08 208.511C1301.54 208.511 1304.16 209.285 1305.94 210.833C1307.73 212.262 1308.62 214.227 1308.62 216.727C1308.62 218.752 1308.03 220.24 1306.84 221.193C1305.65 222.146 1303.86 222.741 1301.48 222.979C1296.48 223.336 1292.01 223.872 1288.08 224.587C1284.27 225.301 1280.7 226.194 1277.36 227.266C1274.15 228.338 1270.81 229.588 1267.36 231.017Z" fill="#5E3BDD"/>
<path fill-rule="evenodd" clip-rule="evenodd" d="M337 123H245C244 123 243 123 242 124L231 142C230 143 230 145 231 146C231 147 232 147 234 147H269C270 147 271 148 271 149C272 150 272 151 271 152C252 183 233 214 214 246C213 247 212 247 211 247H178C177 247 176 247 176 246C159 219 143 191 126 164C125 163 124 163 123 163H103C102 163 101 163 100 164L88.0001 187C88.0001 188 88.0001 189 88.0001 190C109 224 130 258 150 291C151 292 152 293 153 293C181 293 209 293 237 293C238 293 239 292 239 291C273 237 306 182 340 127C340 126 340 125 340 124C339 123 338 123 337 123ZM64.0001 22.9999C75.0001 20.9999 87.0001 20.9999 97.0001 24.9999L98.0001 22.9999C98.0001 10.9999 89.0001 1.99989 78.0001 0.999892C64.0001 -0.000107735 45.0001 3.99989 33.0001 11.9999C18.0001 19.9999 7.00006 33.9999 1.00006 49.9999C-1.99994 59.9999 2.00006 70.9999 11.0001 75.9999L14.0001 77.9999C16.0001 58.9999 27.0001 41.9999 45.0001 30.9999C51.0001 27.9999 57.0001 24.9999 64.0001 22.9999ZM31.0001 78.9999C33.0001 84.9999 36.0001 88.9999 42.0001 91.9999L44.0001 92.9999C43.0001 79.9999 50.0001 67.9999 62.0001 59.9999C63.0001 59.9999 63.0001 59.9999 64.0001 58.9999C75.0001 52.9999 87.0001 52.9999 97.0001 57.9999V56.9999C97.0001 50.9999 95.0001 44.9999 90.0001 40.9999C70.0001 22.9999 24.0001 53.9999 31.0001 78.9999ZM63.0001 84.9999C60.0001 88.9999 58.0001 93.9999 57.0001 99.9999L62.0001 102C69.0001 106 76.0001 106 83.0001 102L87.0001 98.9999C93.0001 94.9999 97.0001 88.9999 97.0001 80.9999V72.9999C89.0001 70.9999 80.0001 71.9999 72.0001 76.9999C69.0001 78.9999 66.0001 81.9999 63.0001 84.9999ZM183 230C186 230 185 230 183 230ZM124 86.9999C118 97.9999 111 109 105 121C105 122 104 123 103 123C87.0001 123 71.0001 123 55.0001 123C54.0001 123 53.0001 123 52.0001 124C37.0001 153 22.0001 181 7.00006 209C6.00006 210 6.00006 211 7.00006 212C8.00006 213 8.00006 214 10.0001 214H22.0001C24.0001 214 25.0001 214 25.0001 215C53.0001 261 82.0001 307 110 354C110 354 111 355 112 355C141 355 170 355 199 355C200 355 201 354 201 354L225 314C226 313 226 312 225 311C225 310 224 310 223 310C194 310 166 310 138 310C137 310 136 309 135 308C116 277 97.0001 246 79.0001 215C78.0001 214 77.0001 214 76.0001 214H61.0001C60.0001 214 59.0001 213 58.0001 212C58.0001 211 58.0001 210 58.0001 209C69.0001 189 80.0001 169 90.0001 149C91.0001 148 92.0001 147 93.0001 147C132 147 171 147 210 147C211 147 212 147 212 146L232 114C232 113 233 112 234 112C272 112 310 112 347 112C348 112 349 112 350 111L363 89.9999C364 88.9999 364 87.9999 363 85.9999C362 84.9999 361 84.9999 360 84.9999C282 84.9999 204 84.9999 126 84.9999C125 84.9999 124 84.9999 124 86.9999Z" fill="#5E3BDD"/>
</svg>
