<svg width="97" height="33" viewBox="0 0 97 33" fill="none" xmlns="http://www.w3.org/2000/svg">
<path fill-rule="evenodd" clip-rule="evenodd" d="M27.7937 10.3474H20.2058C20.1233 10.3474 20.0408 10.3474 19.9583 10.4321L19.0511 11.9569C18.9686 12.0416 18.9686 12.211 19.0511 12.2957C19.0511 12.3804 19.1336 12.3804 19.2985 12.3804H22.1852C22.2677 12.3804 22.3502 12.4651 22.3502 12.5498C22.4327 12.6345 22.4327 12.7192 22.3502 12.8039C20.7831 15.4299 19.216 18.0559 17.649 20.7667C17.5665 20.8514 17.484 20.8514 17.4015 20.8514H14.6798C14.5973 20.8514 14.5148 20.8514 14.5148 20.7667C13.1127 18.4795 11.7931 16.1076 10.3909 13.8205C10.3085 13.7358 10.226 13.7358 10.1435 13.7358H8.49395C8.41148 13.7358 8.329 13.7358 8.24652 13.8205L7.25679 15.7688C7.25679 15.8535 7.25679 15.9382 7.25679 16.0229C8.98882 18.903 10.7209 21.7832 12.3704 24.5786C12.4529 24.6633 12.5354 24.748 12.6178 24.748C14.9272 24.748 17.2366 24.748 19.546 24.748C19.6284 24.748 19.7109 24.6633 19.7109 24.5786C22.5152 20.0043 25.2369 15.3452 28.0412 10.6862C28.0412 10.6015 28.0412 10.5168 28.0412 10.4321C27.9587 10.3474 27.8762 10.3474 27.7937 10.3474ZM5.27733 1.8764C6.18458 1.70699 7.17431 1.70699 7.99909 2.04582L8.08157 1.8764C8.08157 0.859889 7.33927 0.0975021 6.43201 0.0127925C5.27733 -0.0719172 3.71025 0.266921 2.72052 0.944598C1.48335 1.62228 0.5761 2.80821 0.0812346 4.16356C-0.166198 5.01066 0.163712 5.94247 0.906011 6.36601L1.15344 6.53543C1.3184 4.92595 2.22565 3.48589 3.71025 2.55408C4.20512 2.29995 4.69998 2.04582 5.27733 1.8764ZM2.55556 6.62014C2.72052 7.1284 2.96795 7.46724 3.46282 7.72137L3.62777 7.80608C3.5453 6.70485 4.12264 5.68834 5.11237 5.01066C5.19485 5.01066 5.19485 5.01066 5.27733 4.92595C6.18458 4.41769 7.17431 4.41769 7.99909 4.84124V4.75653C7.99909 4.24827 7.83413 3.74002 7.42175 3.40118C5.77219 1.8764 1.97822 4.5024 2.55556 6.62014ZM5.19485 7.1284C4.94742 7.46724 4.78246 7.89079 4.69998 8.39905L5.11237 8.56847C5.68971 8.9073 6.26706 8.9073 6.8444 8.56847L7.17431 8.31434C7.66918 7.9755 7.99909 7.46724 7.99909 6.78956V6.11189C7.33927 5.94247 6.59697 6.02718 5.93715 6.45072C5.68971 6.62014 5.44228 6.87427 5.19485 7.1284ZM15.0922 19.4113C15.3396 19.4113 15.2571 19.4113 15.0922 19.4113ZM10.226 7.29782C9.73112 8.22963 9.15378 9.16143 8.65891 10.1779C8.65891 10.2627 8.57643 10.3474 8.49395 10.3474C7.17431 10.3474 5.85467 10.3474 4.53503 10.3474C4.45255 10.3474 4.37007 10.3474 4.28759 10.4321C3.05043 12.8887 1.81327 15.2605 0.5761 17.6324C0.493623 17.7171 0.493623 17.8018 0.5761 17.8865C0.658578 17.9712 0.658578 18.0559 0.823533 18.0559H1.81327C1.97822 18.0559 2.0607 18.0559 2.0607 18.1407C4.37007 22.0373 6.76192 25.9339 9.0713 29.9153C9.0713 29.9153 9.15378 30 9.23625 30C11.6281 30 14.02 30 16.4118 30C16.4943 30 16.5768 29.9153 16.5768 29.9153L18.5562 26.5269C18.6387 26.4422 18.6387 26.3575 18.5562 26.2728C18.5562 26.1881 18.4737 26.1881 18.3913 26.1881C15.9994 26.1881 13.69 26.1881 11.3807 26.1881C11.2982 26.1881 11.2157 26.1034 11.1332 26.0186C9.56616 23.3926 7.99909 20.7667 6.51449 18.1407C6.43201 18.0559 6.34954 18.0559 6.26706 18.0559H5.02989C4.94742 18.0559 4.86494 17.9712 4.78246 17.8865C4.78246 17.8018 4.78246 17.7171 4.78246 17.6324C5.68971 15.9382 6.59697 14.244 7.42175 12.5498C7.50422 12.4651 7.5867 12.3804 7.66918 12.3804C10.8858 12.3804 14.1024 12.3804 17.3191 12.3804C17.4015 12.3804 17.484 12.3804 17.484 12.2957L19.1336 9.58498C19.1336 9.50027 19.216 9.41556 19.2985 9.41556C22.4327 9.41556 25.5668 9.41556 28.6185 9.41556C28.701 9.41556 28.7835 9.41556 28.8659 9.33085L29.9381 7.55195C30.0206 7.46724 30.0206 7.38253 29.9381 7.21311C29.8557 7.1284 29.7732 7.1284 29.6907 7.1284C23.2575 7.1284 16.8242 7.1284 10.3909 7.1284C10.3085 7.1284 10.226 7.1284 10.226 7.29782Z" fill="#5E3BDD"/>
<path d="M33.055 26.18C32.705 26.18 32.395 26.09 32.125 25.91C31.855 25.72 31.635 25.415 31.465 24.995L28.03 15.5H29.605L32.65 24.41C32.72 24.58 32.785 24.695 32.845 24.755C32.905 24.815 32.975 24.845 33.055 24.845C33.155 24.845 33.23 24.815 33.28 24.755C33.34 24.695 33.405 24.58 33.475 24.41L36.58 15.5H38.095L34.66 24.995C34.51 25.405 34.295 25.705 34.015 25.895C33.735 26.085 33.415 26.18 33.055 26.18ZM41.0471 26.18C40.3071 26.18 39.6671 26.005 39.1271 25.655C38.5871 25.295 38.1721 24.81 37.8821 24.2C37.5921 23.59 37.4471 22.915 37.4471 22.175C37.4471 21.425 37.6071 20.75 37.9271 20.15C38.2471 19.54 38.7071 19.06 39.3071 18.71C39.9071 18.35 40.6271 18.17 41.4671 18.17C42.2771 18.17 42.9721 18.345 43.5521 18.695C44.1321 19.045 44.5771 19.52 44.8871 20.12C45.2071 20.72 45.3671 21.39 45.3671 22.13V26H43.9721V24.44H43.9421C43.7921 24.73 43.5871 25.01 43.3271 25.28C43.0771 25.54 42.7621 25.755 42.3821 25.925C42.0021 26.095 41.5571 26.18 41.0471 26.18ZM41.4071 24.995C41.9071 24.995 42.3471 24.875 42.7271 24.635C43.1171 24.385 43.4171 24.045 43.6271 23.615C43.8471 23.175 43.9571 22.685 43.9571 22.145C43.9571 21.615 43.8521 21.14 43.6421 20.72C43.4421 20.3 43.1521 19.97 42.7721 19.73C42.3921 19.48 41.9471 19.355 41.4371 19.355C40.8971 19.355 40.4321 19.48 40.0421 19.73C39.6621 19.98 39.3671 20.32 39.1571 20.75C38.9571 21.17 38.8571 21.65 38.8571 22.19C38.8571 22.71 38.9571 23.185 39.1571 23.615C39.3571 24.035 39.6471 24.37 40.0271 24.62C40.4071 24.87 40.8671 24.995 41.4071 24.995ZM46.2143 26V15.05H47.5943V26H46.2143ZM52.1436 26C51.3536 26 50.6486 25.83 50.0286 25.49C49.4086 25.15 48.9186 24.695 48.5586 24.125C48.1986 23.545 48.0186 22.895 48.0186 22.175C48.0186 21.455 48.1986 20.81 48.5586 20.24C48.9186 19.66 49.4086 19.2 50.0286 18.86C50.6486 18.52 51.3536 18.35 52.1436 18.35H53.0436V19.535H52.0986C51.5886 19.535 51.1286 19.655 50.7186 19.895C50.3186 20.125 49.9986 20.44 49.7586 20.84C49.5286 21.24 49.4136 21.685 49.4136 22.175C49.4136 22.665 49.5286 23.11 49.7586 23.51C49.9986 23.91 50.3186 24.23 50.7186 24.47C51.1286 24.7 51.5886 24.815 52.0986 24.815H53.0436V26H52.1436ZM56.8702 26.18C56.0902 26.18 55.4002 26.005 54.8002 25.655C54.2002 25.295 53.7252 24.815 53.3752 24.215C53.0252 23.605 52.8502 22.925 52.8502 22.175C52.8502 21.425 53.0252 20.75 53.3752 20.15C53.7252 19.54 54.2002 19.06 54.8002 18.71C55.4002 18.35 56.0902 18.17 56.8702 18.17C57.6502 18.17 58.3402 18.35 58.9402 18.71C59.5502 19.06 60.0252 19.535 60.3652 20.135C60.7152 20.735 60.8902 21.415 60.8902 22.175C60.8902 22.925 60.7152 23.605 60.3652 24.215C60.0252 24.815 59.5502 25.295 58.9402 25.655C58.3402 26.005 57.6502 26.18 56.8702 26.18ZM56.8702 24.995C57.4002 24.995 57.8602 24.87 58.2502 24.62C58.6402 24.37 58.9452 24.035 59.1652 23.615C59.3852 23.185 59.4952 22.705 59.4952 22.175C59.4952 21.645 59.3852 21.17 59.1652 20.75C58.9452 20.32 58.6402 19.98 58.2502 19.73C57.8602 19.48 57.4002 19.355 56.8702 19.355C56.3502 19.355 55.8902 19.48 55.4902 19.73C55.1002 19.98 54.7952 20.32 54.5752 20.75C54.3552 21.17 54.2452 21.645 54.2452 22.175C54.2452 22.705 54.3552 23.185 54.5752 23.615C54.7952 24.035 55.1002 24.37 55.4902 24.62C55.8902 24.87 56.3502 24.995 56.8702 24.995ZM61.3098 26V21.575C61.3098 20.895 61.4598 20.3 61.7598 19.79C62.0698 19.28 62.4948 18.885 63.0348 18.605C63.5748 18.315 64.1898 18.17 64.8798 18.17C65.5798 18.17 66.1948 18.315 66.7248 18.605C67.2648 18.885 67.6848 19.28 67.9848 19.79C68.2948 20.3 68.4498 20.895 68.4498 21.575V26H67.0698V21.59C67.0698 21.13 66.9648 20.735 66.7548 20.405C66.5548 20.065 66.2848 19.805 65.9448 19.625C65.6148 19.445 65.2598 19.355 64.8798 19.355C64.4998 19.355 64.1398 19.445 63.7998 19.625C63.4698 19.805 63.1998 20.065 62.9898 20.405C62.7898 20.735 62.6898 21.13 62.6898 21.59V26H61.3098ZM69.3359 26V15.5H73.9409C74.6009 15.5 75.2009 15.645 75.7409 15.935C76.2809 16.215 76.7109 16.615 77.0309 17.135C77.3509 17.645 77.5109 18.245 77.5109 18.935C77.5109 19.635 77.3309 20.255 76.9709 20.795C76.6209 21.325 76.1459 21.72 75.5459 21.98L76.6709 24.26C76.7509 24.42 76.8359 24.54 76.9259 24.62C77.0259 24.69 77.1659 24.725 77.3459 24.725H78.0959V26H77.1209C76.7309 26 76.3859 25.9 76.0859 25.7C75.7959 25.5 75.5559 25.23 75.3659 24.89L74.1059 22.325C74.0059 22.335 73.8959 22.345 73.7759 22.355C73.6659 22.355 73.5509 22.355 73.4309 22.355H70.7759V26H69.3359ZM70.7759 21.08H73.7459C74.1759 21.08 74.5659 20.995 74.9159 20.825C75.2759 20.655 75.5559 20.41 75.7559 20.09C75.9659 19.77 76.0709 19.385 76.0709 18.935C76.0709 18.475 75.9659 18.085 75.7559 17.765C75.5459 17.445 75.2659 17.2 74.9159 17.03C74.5659 16.86 74.1809 16.775 73.7609 16.775H70.7759V21.08ZM81.6989 26C80.8589 26 80.1139 25.845 79.4639 25.535C78.8139 25.215 78.3039 24.77 77.9339 24.2C77.5739 23.62 77.3939 22.945 77.3939 22.175C77.3939 21.415 77.5489 20.735 77.8589 20.135C78.1689 19.525 78.5989 19.045 79.1489 18.695C79.6989 18.345 80.3389 18.17 81.0689 18.17C81.8589 18.17 82.5139 18.34 83.0339 18.68C83.5639 19.02 83.9589 19.48 84.2189 20.06C84.4789 20.63 84.6089 21.27 84.6089 21.98C84.6089 22.09 84.6039 22.205 84.5939 22.325C84.5939 22.445 84.5839 22.55 84.5639 22.64H78.8639C78.9139 23.11 79.0689 23.51 79.3289 23.84C79.5889 24.16 79.9189 24.405 80.3189 24.575C80.7289 24.735 81.1789 24.815 81.6689 24.815H83.6639V26H81.6989ZM78.8489 21.665H83.2139C83.2139 21.475 83.1939 21.275 83.1539 21.065C83.1139 20.845 83.0439 20.635 82.9439 20.435C82.8439 20.225 82.7089 20.04 82.5389 19.88C82.3789 19.71 82.1739 19.575 81.9239 19.475C81.6839 19.375 81.3989 19.325 81.0689 19.325C80.7189 19.325 80.4089 19.395 80.1389 19.535C79.8789 19.665 79.6539 19.845 79.4639 20.075C79.2739 20.295 79.1289 20.545 79.0289 20.825C78.9289 21.105 78.8689 21.385 78.8489 21.665ZM84.9136 26V24.815H88.5736C88.8136 24.815 89.0186 24.765 89.1886 24.665C89.3686 24.555 89.5036 24.415 89.5936 24.245C89.6836 24.075 89.7286 23.895 89.7286 23.705C89.7286 23.525 89.6886 23.36 89.6086 23.21C89.5286 23.05 89.4036 22.925 89.2336 22.835C89.0736 22.735 88.8786 22.685 88.6486 22.685H87.1036C86.6136 22.685 86.1836 22.605 85.8136 22.445C85.4536 22.275 85.1686 22.03 84.9586 21.71C84.7586 21.39 84.6586 21 84.6586 20.54C84.6586 20.15 84.7536 19.79 84.9436 19.46C85.1336 19.13 85.3986 18.865 85.7386 18.665C86.0786 18.455 86.4686 18.35 86.9086 18.35H90.4336V19.535H87.0436C86.7336 19.535 86.4886 19.63 86.3086 19.82C86.1286 20.01 86.0386 20.235 86.0386 20.495C86.0386 20.745 86.1286 20.965 86.3086 21.155C86.4986 21.335 86.7636 21.425 87.1036 21.425H88.5736C89.1236 21.425 89.5836 21.515 89.9536 21.695C90.3336 21.865 90.6186 22.115 90.8086 22.445C91.0086 22.775 91.1086 23.18 91.1086 23.66C91.1086 24.07 91.0086 24.455 90.8086 24.815C90.6086 25.165 90.3286 25.45 89.9686 25.67C89.6186 25.89 89.2086 26 88.7386 26H84.9136ZM93.9691 26C93.2891 26 92.7541 25.805 92.3641 25.415C91.9841 25.025 91.7941 24.495 91.7941 23.825V16.43H93.1741V23.735C93.1741 24.065 93.2641 24.33 93.4441 24.53C93.6341 24.72 93.8941 24.815 94.2241 24.815H95.7691V26H93.9691ZM90.4741 19.535V18.35H95.7991V19.535H90.4741Z" fill="#5E3BDD"/>
</svg>
