<svg width="35" height="35" viewBox="0 0 35 35" fill="none" xmlns="http://www.w3.org/2000/svg">
<path fill-rule="evenodd" clip-rule="evenodd" d="M23.1614 8.62281H16.8381C16.7694 8.62281 16.7007 8.62281 16.632 8.6934L15.8759 9.96404C15.8072 10.0346 15.8072 10.1758 15.8759 10.2464C15.8759 10.317 15.9446 10.317 16.0821 10.317H18.4877C18.5564 10.317 18.6252 10.3876 18.6252 10.4582C18.6939 10.5288 18.6939 10.5994 18.6252 10.67C17.3193 12.8583 16.0134 15.0466 14.7075 17.3055C14.6387 17.3761 14.57 17.3761 14.5013 17.3761H12.2331C12.1644 17.3761 12.0957 17.3761 12.0957 17.3055C10.9273 15.3996 9.82755 13.423 8.65912 11.5171C8.59039 11.4465 8.52165 11.4465 8.45292 11.4465H7.0783C7.00956 11.4465 6.94083 11.4465 6.8721 11.5171L6.04732 13.1407C6.04732 13.2112 6.04732 13.2818 6.04732 13.3524C7.49068 15.7525 8.93404 18.1526 10.3087 20.4822C10.3774 20.5527 10.4461 20.6233 10.5149 20.6233C12.4393 20.6233 14.3638 20.6233 16.2883 20.6233C16.357 20.6233 16.4258 20.5527 16.4258 20.4822C18.7626 16.6702 21.0308 12.7877 23.3676 8.90517C23.3676 8.83458 23.3676 8.76399 23.3676 8.6934C23.2989 8.62281 23.2302 8.62281 23.1614 8.62281ZM4.39777 1.56367C5.15382 1.42249 5.97859 1.42249 6.66591 1.70485L6.73464 1.56367C6.73464 0.716574 6.11606 0.0812517 5.36001 0.0106604C4.39777 -0.059931 3.09188 0.222434 2.2671 0.787165C1.23613 1.3519 0.480084 2.34018 0.0676955 3.46964C-0.138499 4.17555 0.136427 4.95206 0.755009 5.30501L0.961203 5.4462C1.09867 4.10496 1.85471 2.90491 3.09188 2.1284C3.50426 1.91663 3.91665 1.70485 4.39777 1.56367ZM2.12964 5.51679C2.2671 5.94033 2.47329 6.2227 2.88568 6.43447L3.02314 6.50507C2.95441 5.58738 3.43553 4.74028 4.26031 4.17555C4.32904 4.17555 4.32904 4.17555 4.39777 4.10496C5.15382 3.68141 5.97859 3.68141 6.66591 4.03437V3.96378C6.66591 3.54023 6.52844 3.11668 6.18479 2.83431C4.81016 1.56367 1.64852 3.752 2.12964 5.51679ZM4.32904 5.94033C4.12285 6.2227 3.98538 6.57566 3.91665 6.99921L4.26031 7.14039C4.74143 7.42275 5.22255 7.42275 5.70367 7.14039L5.97859 6.92861C6.39098 6.64625 6.66591 6.2227 6.66591 5.65797V5.09324C6.11606 4.95206 5.49747 5.02265 4.94762 5.3756C4.74143 5.51679 4.53523 5.72856 4.32904 5.94033ZM12.5768 16.1761C12.783 16.1761 12.7143 16.1761 12.5768 16.1761ZM8.52165 6.08152C8.10927 6.85802 7.62815 7.63453 7.21576 8.48162C7.21576 8.55222 7.14703 8.62281 7.0783 8.62281C5.97859 8.62281 4.87889 8.62281 3.77919 8.62281C3.71046 8.62281 3.64173 8.62281 3.573 8.6934C2.54202 10.7405 1.51105 12.7171 0.480084 14.6937C0.411352 14.7643 0.411352 14.8348 0.480084 14.9054C0.548815 14.976 0.548815 15.0466 0.686278 15.0466H1.51105C1.64852 15.0466 1.71725 15.0466 1.71725 15.1172C3.64173 18.3644 5.63494 21.6116 7.55941 24.9294C7.55941 24.9294 7.62815 25 7.69688 25C9.69009 25 11.6833 25 13.6765 25C13.7452 25 13.814 24.9294 13.814 24.9294L15.4635 22.1058C15.5323 22.0352 15.5323 21.9646 15.4635 21.894C15.4635 21.8234 15.3948 21.8234 15.3261 21.8234C13.3328 21.8234 11.4084 21.8234 9.48389 21.8234C9.41516 21.8234 9.34643 21.7528 9.2777 21.6822C7.9718 19.4939 6.66591 17.3055 5.42874 15.1172C5.36001 15.0466 5.29128 15.0466 5.22255 15.0466H4.19158C4.12285 15.0466 4.05411 14.976 3.98538 14.9054C3.98538 14.8348 3.98538 14.7643 3.98538 14.6937C4.74143 13.2818 5.49747 11.87 6.18479 10.4582C6.25352 10.3876 6.32225 10.317 6.39098 10.317C9.0715 10.317 11.752 10.317 14.4326 10.317C14.5013 10.317 14.57 10.317 14.57 10.2464L15.9446 7.98748C15.9446 7.91689 16.0134 7.8463 16.0821 7.8463C18.6939 7.8463 21.3057 7.8463 23.8487 7.8463C23.9175 7.8463 23.9862 7.8463 24.0549 7.77571L24.9485 6.29329C25.0172 6.2227 25.0172 6.15211 24.9485 6.01093C24.8797 5.94033 24.811 5.94033 24.7423 5.94033C19.3812 5.94033 14.0202 5.94033 8.65912 5.94033C8.59039 5.94033 8.52165 5.94033 8.52165 6.08152Z" fill="#5E3BDD"/>
</svg>
